<svg width="40" height="40" viewBox="0 0 40 40" fill="none" xmlns="http://www.w3.org/2000/svg">
<path d="M33 0H7C3.13401 0 0 3.13401 0 7V33C0 36.866 3.13401 40 7 40H33C36.866 40 40 36.866 40 33V7C40 3.13401 36.866 0 33 0Z" fill="#000058"/>
<path d="M16.8312 23.3803H11.2913L9.86083 27.9578C9.84349 28.0966 9.7568 28.1659 9.60074 28.1659H6.99987C6.82648 28.1659 6.76579 28.0792 6.81781 27.9058L11.8375 12.5865C11.9589 12.2571 12.0282 11.7803 12.0456 11.1561C12.0456 11.052 12.0976 11 12.2016 11H15.8428C15.9469 11 16.0076 11.0433 16.0249 11.13L21.6428 27.9318C21.6948 28.0879 21.6515 28.1659 21.5127 28.1659H18.5998C18.4784 28.1659 18.3917 28.1139 18.3397 28.0099L16.8312 23.3803ZM11.9155 20.9094H16.233C16.1289 20.5453 15.9122 19.8344 15.5828 18.7767C15.2533 17.719 14.9499 16.7306 14.6724 15.8117C14.395 14.8927 14.187 14.1644 14.0482 13.6269H14.0222C13.8315 14.5285 13.1293 16.9561 11.9155 20.9094Z" fill="#9999F9"/>
<path d="M30.2348 22.3919H25.4752C25.4926 23.5016 25.8047 24.3773 26.4115 25.0188C27.0184 25.6604 27.9287 25.9812 29.1424 25.9812C30.2521 25.9812 31.2405 25.7904 32.1074 25.409C32.2115 25.3396 32.2635 25.3743 32.2635 25.513V27.4117C32.2635 27.533 32.2115 27.6371 32.1074 27.7238C31.1191 28.1746 29.9054 28.4 28.4662 28.4C26.3335 28.4 24.7643 27.7931 23.7586 26.5794C22.7703 25.3483 22.2761 23.8138 22.2761 21.9758C22.2761 20.0685 22.7963 18.4732 23.8367 17.1901C24.877 15.907 26.2988 15.2655 28.1021 15.2655C29.8187 15.2655 31.0931 15.7943 31.9254 16.852C32.775 17.9097 33.1998 19.1495 33.1998 20.5713C33.1998 21.2822 33.1651 21.7851 33.0958 22.0798C33.0784 22.2012 33.0091 22.2706 32.8877 22.2879C32.4369 22.3572 31.5526 22.3919 30.2348 22.3919ZM25.4752 20.3892H28.9084C29.6539 20.3892 30.0788 20.3719 30.1828 20.3372C30.2001 20.2679 30.2088 20.1465 30.2088 19.9731C30.2088 19.3142 30.0354 18.7247 29.6886 18.2045C29.3418 17.6843 28.7783 17.4242 27.9981 17.4242C27.2351 17.4242 26.6456 17.7016 26.2295 18.2565C25.8133 18.8114 25.5619 19.5223 25.4752 20.3892Z" fill="#9999F9"/>
</svg>
