<svg width="40" height="40" viewBox="0 0 40 40" fill="none" xmlns="http://www.w3.org/2000/svg">
<path d="M33 0H7C3.13401 0 0 3.13401 0 7V33C0 36.866 3.13401 40 7 40H33C36.866 40 40 36.866 40 33V7C40 3.13401 36.866 0 33 0Z" fill="#000058"/>
<path d="M16.4163 23.6048H10.885L9.4567 28.1915C9.43939 28.3305 9.35283 28.4 9.19701 28.4H6.60015C6.42703 28.4 6.36643 28.3131 6.41837 28.1393L11.4303 12.7896C11.5515 12.4595 11.6208 11.9818 11.6381 11.3563C11.6381 11.2521 11.69 11.2 11.7939 11.2H15.4295C15.5334 11.2 15.594 11.2434 15.6113 11.3303L21.2205 28.1654C21.2724 28.3218 21.2291 28.4 21.0906 28.4H18.1822C18.061 28.4 17.9744 28.3478 17.9225 28.2436L16.4163 23.6048ZM11.5082 21.129H15.819C15.7151 20.7642 15.4987 20.0519 15.1698 18.9921C14.8409 17.9323 14.5379 16.942 14.2609 16.0212C13.9839 15.1004 13.7762 14.3707 13.6377 13.8321H13.6117C13.4212 14.7355 12.7201 17.1678 11.5082 21.129Z" fill="#9999F9"/>
<path d="M22.7533 28.1915V18.6793C22.7533 17.5674 22.7186 16.6466 22.6494 15.9169C22.6148 15.7779 22.6667 15.7084 22.8052 15.7084H25.1683C25.3241 15.7084 25.428 15.7692 25.48 15.8909C25.5146 15.9777 25.5838 16.3078 25.6877 16.8812C26.7265 15.943 27.921 15.4739 29.2714 15.4739C29.7734 15.4739 30.2495 15.5521 30.6997 15.7084C31.1498 15.8648 31.5826 16.1167 31.9981 16.4642C32.4309 16.8117 32.7685 17.3329 33.0109 18.0278C33.2705 18.7054 33.4004 19.522 33.4004 20.4775V28.1915C33.4004 28.3305 33.3311 28.4 33.1926 28.4H30.44C30.3015 28.4 30.2322 28.3305 30.2322 28.1915V20.3993C30.2322 19.6349 30.0591 19.0355 29.7128 18.6012C29.3839 18.1668 28.8818 17.9496 28.2067 17.9496C27.3064 17.9496 26.5447 18.3145 25.9214 19.0442V28.1915C25.9214 28.3305 25.8522 28.4 25.7137 28.4H22.961C22.8225 28.4 22.7533 28.3305 22.7533 28.1915Z" fill="#9999F9"/>
</svg>
