<svg width="40" height="40" viewBox="0 0 40 40" fill="none" xmlns="http://www.w3.org/2000/svg">
<g clip-path="url(#clip0_64_998)">
<path d="M7.08334 3.22406e-06H32.9167C33.8471 -0.000896211 34.7686 0.186404 35.6284 0.551183C36.4882 0.915963 37.2694 1.45106 37.9273 2.12585C38.5852 2.80065 39.1069 3.60189 39.4626 4.48372C39.8183 5.36555 40.0009 6.31066 40 7.26496V32.735C40.0009 33.6893 39.8183 34.6344 39.4626 35.5163C39.1069 36.3981 38.5852 37.1994 37.9273 37.8741C37.2694 38.5489 36.4882 39.084 35.6284 39.4488C34.7686 39.8136 33.8471 40.0009 32.9167 40H7.08334C6.15289 40.0009 5.23141 39.8136 4.37162 39.4488C3.51184 39.084 2.73063 38.5489 2.07271 37.8741C1.41478 37.1994 0.893064 36.3981 0.537404 35.5163C0.181743 34.6344 -0.000873806 33.6893 3.14346e-06 32.735V7.26496C-0.000873806 6.31066 0.181743 5.36555 0.537404 4.48372C0.893064 3.60189 1.41478 2.80065 2.07271 2.12585C2.73063 1.45106 3.51184 0.915963 4.37162 0.551183C5.23141 0.186404 6.15289 -0.000896211 7.08334 3.22406e-06Z" fill="#F0F0F0"/>
<path d="M20.0025 35.4981L11.0051 33.0003L9 10.5115H31.032L29.0248 32.9969L20.0025 35.4981Z" fill="#264DE4"/>
<path d="M27.3061 31.5652L29.0213 12.3503H20.0156V33.5863L27.3061 31.5652Z" fill="#2965F1"/>
<path d="M13.5964 20.691L13.8435 23.4491H20.0158V20.691H13.5964ZM13.0996 15.1084L13.3503 17.8666H20.0158V15.1084H13.0996ZM20.0158 27.8542L20.0037 27.8574L16.932 27.028L16.7356 24.8283H13.9668L14.3532 29.159L20.0031 30.7274L20.0158 30.7239V27.8542Z" fill="#EBEBEB"/>
<path d="M14.1855 4.3999H17.5261V5.79691H15.5826V7.19391H17.5262V8.59083H14.1855V4.3999ZM18.1942 4.3999H21.5348V5.61468H19.5913V5.85762H21.5348V8.65163H18.1943V7.37596H20.1379V7.13302H18.1942V4.3999H18.1942ZM22.203 4.3999H25.5436V5.61468H23.6V5.85762H25.5436V8.65163H22.203V7.37596H24.1466V7.13302H22.2031V4.3999H22.203Z" fill="black"/>
<path d="M26.4182 20.6912L26.9161 15.1086H20.0069V17.8668H23.8934L23.6424 20.6912H20.0069V23.4494H23.4033L23.0831 27.0265L20.0068 27.8568V30.7263L25.6613 29.1593L25.7027 28.6932L26.351 21.4319L26.4182 20.6912Z" fill="white"/>
</g>
<defs>
<clipPath id="clip0_64_998">
<rect width="40" height="40" fill="white"/>
</clipPath>
</defs>
</svg>
