<svg width="177" height="175" viewBox="0 0 177 175" fill="none" xmlns="http://www.w3.org/2000/svg">
<circle cx="88" cy="91" r="83" fill="white"/>
<mask id="mask0_302_9" style="mask-type:luminance" maskUnits="userSpaceOnUse" x="0" y="0" width="177" height="175">
<path d="M0 0H176.763V174.121H0V0Z" fill="white"/>
</mask>
<g mask="url(#mask0_302_9)">
<path d="M88.3817 0.03125C39.5731 0.03125 0 39.6043 0 88.413C0 129.827 28.5181 164.48 66.964 174.07C66.5516 172.877 66.2863 171.492 66.2863 169.776V154.67C62.6994 154.67 56.6897 154.67 55.1798 154.67C49.1327 154.67 43.7565 152.07 41.1491 147.238C38.2545 141.869 37.7537 133.657 30.5799 128.634C28.4515 126.962 30.0717 125.055 32.5247 125.313C37.0541 126.594 40.8105 129.702 44.3454 134.313C47.8661 138.931 49.5233 139.976 56.1004 139.976C59.2894 139.976 64.0622 139.792 68.5546 139.085C70.9706 132.95 75.1468 127.301 80.2504 124.635C50.8195 121.608 36.7742 106.966 36.7742 87.0872C36.7742 78.5288 40.4199 70.2508 46.6142 63.2758C44.5815 56.3527 42.0255 42.2336 47.3949 36.857C60.6371 36.857 68.643 45.4449 70.5655 47.7648C77.1645 45.5037 84.412 44.2221 92.0274 44.2221C99.6578 44.2221 106.935 45.5037 113.549 47.7793C115.449 45.4741 123.462 36.857 136.734 36.857C142.125 42.2409 139.54 56.4188 137.485 63.3273C143.643 70.2872 147.266 78.5439 147.266 87.0872C147.266 106.951 133.243 121.586 103.856 124.628C111.943 128.847 117.842 140.706 117.842 149.639V169.776C117.842 170.542 117.673 171.094 117.584 171.749C152.024 159.678 176.763 126.977 176.763 88.413C176.763 39.6043 137.19 0.03125 88.3817 0.03125Z" fill="black"/>
</g>
</svg>
