<svg width="40" height="40" viewBox="0 0 40 40" fill="none" xmlns="http://www.w3.org/2000/svg">
<g clip-path="url(#clip0_64_990)">
<path d="M7.08334 3.22406e-06H32.9167C33.8471 -0.000896211 34.7686 0.186404 35.6284 0.551183C36.4882 0.915963 37.2694 1.45106 37.9273 2.12585C38.5852 2.80065 39.1069 3.60189 39.4626 4.48372C39.8183 5.36555 40.0009 6.31066 40 7.26496V32.735C40.0009 33.6893 39.8183 34.6344 39.4626 35.5163C39.1069 36.3981 38.5852 37.1994 37.9273 37.8741C37.2694 38.5489 36.4882 39.084 35.6284 39.4488C34.7686 39.8136 33.8471 40.0009 32.9167 40H7.08334C6.15289 40.0009 5.23141 39.8136 4.37162 39.4488C3.51184 39.084 2.73063 38.5489 2.07271 37.8741C1.41478 37.1994 0.893064 36.3981 0.537404 35.5163C0.181743 34.6344 -0.000873806 33.6893 3.14346e-06 32.735V7.26496C-0.000873806 6.31066 0.181743 5.36555 0.537404 4.48372C0.893064 3.60189 1.41478 2.80065 2.07271 2.12585C2.73063 1.45106 3.51184 0.915963 4.37162 0.551183C5.23141 0.186404 6.15289 -0.000896211 7.08334 3.22406e-06Z" fill="#F0F0F0"/>
<path d="M31.0159 10.5117L29.0087 32.9977L19.9862 35.499L10.9885 33.0011L8.9834 10.5117H31.0159Z" fill="#E44D26"/>
<path d="M20 33.5871L27.2907 31.5659L29.0059 12.3506H20V33.5871Z" fill="#F16529"/>
<path d="M16.0984 17.8671H20.0003V15.1089H13.084L13.15 15.8489L13.8279 23.4498H20.0003V20.6916H16.3505L16.0984 17.8671ZM16.72 24.829H13.9512L14.3376 29.1598L19.9876 30.7282L20.0003 30.7248V27.855L19.9882 27.8582L16.9164 27.0288L16.72 24.829Z" fill="#EBEBEB"/>
<path d="M11.0342 4.3999H12.4359V5.78476H13.7181V4.3999H15.1199V8.59361H13.7182V7.18931H12.436V8.59361H11.0343V4.3999H11.0342ZM16.9631 5.79064H15.7293V4.3999H19.5997V5.79064H18.3651V8.59361H16.9634V5.79064H16.9633H16.9631ZM20.2139 4.3999H21.6755L22.5745 5.87346L23.4727 4.3999H24.9349V8.59361H23.5389V6.51498L22.5745 8.00607H22.5503L21.5854 6.51498V8.59361H20.2139V4.3999ZM25.6324 4.3999H27.0346V7.20745H29.0058V8.59361H25.6323V4.3999H25.6324Z" fill="black"/>
<path d="M19.9913 23.4498H23.3878L23.0675 27.0271L19.9912 27.8574V30.7269L25.6458 29.1598L25.6872 28.6938L26.3355 21.4323L26.4028 20.6916H19.9913V23.4498ZM19.9913 17.8604V17.8671H26.6537L26.709 17.2472L26.8348 15.8489L26.9007 15.1089H19.9913V17.8605V17.8604Z" fill="white"/>
</g>
<defs>
<clipPath id="clip0_64_990">
<rect width="40" height="40" fill="white"/>
</clipPath>
</defs>
</svg>
