<svg width="40" height="40" viewBox="0 0 40 40" fill="none" xmlns="http://www.w3.org/2000/svg">
<path d="M33 0H7C3.13401 0 0 3.13401 0 7V33C0 36.866 3.13401 40 7 40H33C36.866 40 40 36.866 40 33V7C40 3.13401 36.866 0 33 0Z" fill="#430C1F"/>
<path d="M14.7719 12.1885V28.9314C14.7719 29.0876 14.702 29.1657 14.5622 29.1657H11.8094C11.6695 29.1657 11.5996 29.0876 11.5996 28.9314V12.1885C11.5996 12.0496 11.6695 11.9802 11.8094 11.9802H14.5884C14.7108 11.9802 14.7719 12.0496 14.7719 12.1885Z" fill="#EC4E68"/>
<path d="M23.3097 29.4001C21.3521 29.4001 19.7878 28.8533 18.6167 27.7597C17.4457 26.666 16.8601 25.0516 16.8601 22.9164C16.8601 20.9722 17.4893 19.3752 18.7478 18.1253C20.0062 16.8754 21.6842 16.2505 23.7816 16.2505C24.3059 16.2505 24.7604 16.2939 25.1449 16.3807V10.7563C25.1449 10.6522 25.1973 10.6001 25.3022 10.6001H28.1861C28.2735 10.6001 28.3172 10.6522 28.3172 10.7563V26.3536C28.3172 27.0132 28.3434 27.5861 28.3959 28.0721C28.4133 28.1763 28.3696 28.2544 28.2648 28.3065C26.7442 29.0356 25.0924 29.4001 23.3097 29.4001ZM25.1449 26.8223V18.7763C24.7953 18.5853 24.3234 18.4898 23.7291 18.4898C22.663 18.4898 21.7978 18.8631 21.1336 19.6095C20.4694 20.356 20.1373 21.4149 20.1373 22.7862C20.1373 24.2444 20.4607 25.3207 21.1074 26.0151C21.7716 26.7094 22.6105 27.0566 23.6243 27.0566C24.2535 27.0566 24.7604 26.9785 25.1449 26.8223Z" fill="#EC4E68"/>
</svg>
