<svg width="40" height="40" viewBox="0 0 40 40" fill="none" xmlns="http://www.w3.org/2000/svg">
<path d="M33 0H7C3.13401 0 0 3.13401 0 7V33C0 36.866 3.13401 40 7 40H33C36.866 40 40 36.866 40 33V7C40 3.13401 36.866 0 33 0Z" fill="#000058"/>
<path d="M9.7998 28.418V11.6337C9.7998 11.5125 9.85199 11.4519 9.95636 11.4519C11.0696 11.4172 12.6352 11.3999 14.653 11.3999C16.9492 11.3999 18.6365 11.9282 19.715 12.9848C20.8109 14.0241 21.3589 15.3318 21.3589 16.9081C21.3589 18.8134 20.6892 20.2511 19.3497 21.2211C18.0277 22.1737 16.3491 22.6501 14.3138 22.6501C14.0703 22.6501 13.7833 22.6501 13.4528 22.6501C13.1397 22.6327 12.9744 22.6241 12.957 22.6241V28.418C12.957 28.5393 12.8874 28.5999 12.7483 28.5999H9.98245C9.86069 28.5999 9.7998 28.5393 9.7998 28.418ZM12.957 13.8162V20.2078C13.2006 20.2424 13.705 20.2597 14.4704 20.2597C15.5663 20.2597 16.4621 20.0086 17.1579 19.5062C17.8537 18.9866 18.2017 18.1379 18.2017 16.96C18.2017 15.9554 17.8885 15.1759 17.2623 14.6217C16.6535 14.0501 15.7837 13.7643 14.653 13.7643C13.7311 13.7643 13.1658 13.7816 12.957 13.8162Z" fill="#9999F9"/>
<path d="M23.0243 15.9467H25.477C25.6162 15.9467 25.7119 16.016 25.764 16.1546C25.9032 16.501 25.9902 17.0033 26.025 17.6615C27.0339 16.3624 28.3646 15.7129 30.0172 15.7129C30.1389 15.7129 30.1998 15.7735 30.1998 15.8948V18.5189C30.1998 18.6575 30.1302 18.7181 29.9911 18.7008C28.4777 18.6142 27.2861 19.0039 26.4164 19.87C26.2598 20.0259 26.1815 20.2337 26.1815 20.4936V28.418C26.1815 28.5393 26.1119 28.5999 25.9728 28.5999H23.2331C23.0765 28.5999 22.9982 28.5306 22.9982 28.392V19.6102C22.9982 18.2072 22.9547 17.0466 22.8678 16.1286C22.8504 16.0074 22.9025 15.9467 23.0243 15.9467Z" fill="#9999F9"/>
</svg>
