<svg width="45" height="45" viewBox="0 0 45 45" fill="none" xmlns="http://www.w3.org/2000/svg">
<path d="M9.30502 2.1333H35.1383C36.0688 2.1324 36.9903 2.3197 37.8501 2.68448C38.7098 3.04926 39.491 3.58436 40.149 4.25915C40.8069 4.93395 41.3286 5.73519 41.6843 6.61702C42.0399 7.49885 42.2226 8.44396 42.2217 9.39826V34.8683C42.2226 35.8226 42.0399 36.7677 41.6843 37.6496C41.3286 38.5314 40.8069 39.3327 40.149 40.0074C39.491 40.6822 38.7098 41.2173 37.8501 41.5821C36.9903 41.9469 36.0688 42.1342 35.1383 42.1333H9.30502C8.37457 42.1342 7.45309 41.9469 6.5933 41.5821C5.73352 41.2173 4.95231 40.6822 4.29439 40.0074C3.63646 39.3327 3.11474 38.5314 2.75908 37.6496C2.40342 36.7677 2.22081 35.8226 2.22168 34.8683V9.39826C2.22081 8.44396 2.40342 7.49885 2.75908 6.61702C3.11474 5.73519 3.63646 4.93395 4.29439 4.25915C4.95231 3.58436 5.73352 3.04926 6.5933 2.68448C7.45309 2.3197 8.37457 2.1324 9.30502 2.1333Z" fill="#000B1D"/>
<path d="M35.1112 11.2572L29.3949 8.50487C28.7332 8.18629 27.9425 8.32068 27.4232 8.83995L8.71014 25.9019C8.2068 26.3608 8.20738 27.1532 8.71138 27.6114L10.2399 29.001C10.652 29.3756 11.2725 29.4032 11.7162 29.0666L34.251 11.9712C35.0071 11.3977 36.0929 11.9369 36.0929 12.8858V12.8195C36.0929 12.1533 35.7113 11.5461 35.1112 11.2572Z" fill="#0065A9"/>
<g filter="url(#filter0_d_64_980)">
<path d="M35.1112 33.0096L29.3949 35.7619C28.7332 36.0805 27.9425 35.946 27.4232 35.4268L8.71014 18.3649C8.2068 17.9059 8.20738 17.1135 8.71138 16.6553L10.2399 15.2657C10.652 14.8911 11.2725 14.8636 11.7162 15.2001L34.251 32.2955C35.0071 32.8691 36.0929 32.3299 36.0929 31.3809V31.4473C36.0929 32.1134 35.7113 32.7206 35.1112 33.0096Z" fill="#007ACC"/>
</g>
<g filter="url(#filter1_d_64_980)">
<path d="M29.3948 35.7624C28.7329 36.0808 27.9422 35.9461 27.4229 35.4268C28.0627 36.0667 29.1568 35.6135 29.1568 34.7086V9.55794C29.1568 8.65303 28.0627 8.19985 27.4229 8.83971C27.9422 8.32039 28.7329 8.18582 29.3948 8.50412L35.1101 11.2526C35.7106 11.5414 36.0926 12.1489 36.0926 12.8153V31.4513C36.0926 32.1177 35.7106 32.7252 35.1101 33.014L29.3948 35.7624Z" fill="#1F9CF0"/>
</g>
<g style="mix-blend-mode:overlay" opacity="0.25">
<path style="mix-blend-mode:overlay" fill-rule="evenodd" clip-rule="evenodd" d="M28.0061 35.8153C28.4431 35.9855 28.9413 35.9746 29.3823 35.7624L35.0942 33.014C35.6944 32.7252 36.076 32.1177 36.076 31.4513V12.8153C36.076 12.1489 35.6944 11.5414 35.0942 11.2526L29.3823 8.50412C28.8036 8.22561 28.1262 8.29383 27.6182 8.66314C27.5456 8.71589 27.4765 8.7748 27.4116 8.83971L16.477 18.8156L11.7141 15.2002C11.2707 14.8636 10.6506 14.8912 10.2388 15.2657L8.71115 16.6553C8.20746 17.1135 8.20688 17.906 8.70991 18.3649L12.8404 22.1332L8.70991 25.9016C8.20688 26.3606 8.20746 27.153 8.71115 27.6112L10.2388 29.0008C10.6506 29.3753 11.2707 29.4029 11.7141 29.0664L16.477 25.4509L27.4116 35.4268C27.5846 35.5999 27.7877 35.7302 28.0061 35.8153ZM29.1445 15.8353L20.8476 22.1332L29.1445 28.4313V15.8353Z" fill="url(#paint0_linear_64_980)"/>
</g>
<defs>
<filter id="filter0_d_64_980" x="-0.000331879" y="6.63175" width="44.4264" height="37.6347" filterUnits="userSpaceOnUse" color-interpolation-filters="sRGB">
<feFlood flood-opacity="0" result="BackgroundImageFix"/>
<feColorMatrix in="SourceAlpha" type="matrix" values="0 0 0 0 0 0 0 0 0 0 0 0 0 0 0 0 0 0 127 0" result="hardAlpha"/>
<feOffset/>
<feGaussianBlur stdDeviation="4.16667"/>
<feColorMatrix type="matrix" values="0 0 0 0 0 0 0 0 0 0 0 0 0 0 0 0 0 0 0.25 0"/>
<feBlend mode="overlay" in2="BackgroundImageFix" result="effect1_dropShadow_64_980"/>
<feBlend mode="normal" in="SourceGraphic" in2="effect1_dropShadow_64_980" result="shape"/>
</filter>
<filter id="filter1_d_64_980" x="19.0895" y="-8.7738e-05" width="25.3366" height="44.2668" filterUnits="userSpaceOnUse" color-interpolation-filters="sRGB">
<feFlood flood-opacity="0" result="BackgroundImageFix"/>
<feColorMatrix in="SourceAlpha" type="matrix" values="0 0 0 0 0 0 0 0 0 0 0 0 0 0 0 0 0 0 127 0" result="hardAlpha"/>
<feOffset/>
<feGaussianBlur stdDeviation="4.16667"/>
<feColorMatrix type="matrix" values="0 0 0 0 0 0 0 0 0 0 0 0 0 0 0 0 0 0 0.25 0"/>
<feBlend mode="overlay" in2="BackgroundImageFix" result="effect1_dropShadow_64_980"/>
<feBlend mode="normal" in="SourceGraphic" in2="effect1_dropShadow_64_980" result="shape"/>
</filter>
<linearGradient id="paint0_linear_64_980" x1="22.2045" y1="8.33325" x2="22.2045" y2="35.9333" gradientUnits="userSpaceOnUse">
<stop stop-color="white"/>
<stop offset="1" stop-color="white" stop-opacity="0"/>
</linearGradient>
</defs>
</svg>
