<svg width="102" height="102" viewBox="0 0 102 102" fill="none" xmlns="http://www.w3.org/2000/svg">
<path d="M69.3848 34.0294C69.7753 33.6389 69.7753 33.0058 69.3848 32.6152C68.9943 32.2247 68.3611 32.2247 67.9706 32.6152L68.6777 33.3223L69.3848 34.0294ZM32.6152 67.9706C32.2247 68.3611 32.2247 68.9943 32.6152 69.3848C33.0057 69.7753 33.6389 69.7753 34.0294 69.3848L33.3223 68.6777L32.6152 67.9706ZM67.9706 69.3848C68.3611 69.7753 68.9943 69.7753 69.3848 69.3848C69.7753 68.9943 69.7753 68.3611 69.3848 67.9706L68.6777 68.6777L67.9706 69.3848ZM34.0294 32.6152C33.6389 32.2247 33.0057 32.2247 32.6152 32.6152C32.2247 33.0057 32.2247 33.6389 32.6152 34.0294L33.3223 33.3223L34.0294 32.6152ZM101 51H100C100 78.062 78.062 100 51 100V101V102C79.1665 102 102 79.1665 102 51H101ZM51 101V100C23.938 100 2 78.062 2 51H1H0C0 79.1665 22.8335 102 51 102V101ZM1 51H2C2 23.938 23.938 2 51 2V1V0C22.8335 0 0 22.8335 0 51H1ZM51 1V2C78.062 2 100 23.938 100 51H101H102C102 22.8335 79.1665 0 51 0V1ZM68.6777 33.3223L67.9706 32.6152L50.2929 50.2929L51 51L51.7071 51.7071L69.3848 34.0294L68.6777 33.3223ZM51 51L50.2929 50.2929L32.6152 67.9706L33.3223 68.6777L34.0294 69.3848L51.7071 51.7071L51 51ZM68.6777 68.6777L69.3848 67.9706L51.7071 50.2929L51 51L50.2929 51.7071L67.9706 69.3848L68.6777 68.6777ZM51 51L51.7071 50.2929L34.0294 32.6152L33.3223 33.3223L32.6152 34.0294L50.2929 51.7071L51 51Z" fill="white"/>
</svg>
